<?xml version="1.0" encoding="UTF-8" standalone="no"?>
<!-- Created with Inkscape (http://www.inkscape.org/) -->

<svg
   xmlns:dc="http://purl.org/dc/elements/1.1/"
   xmlns:cc="http://creativecommons.org/ns#"
   xmlns:rdf="http://www.w3.org/1999/02/22-rdf-syntax-ns#"
   xmlns:svg="http://www.w3.org/2000/svg"
   xmlns="http://www.w3.org/2000/svg"
   xmlns:sodipodi="http://sodipodi.sourceforge.net/DTD/sodipodi-0.dtd"
   xmlns:inkscape="http://www.inkscape.org/namespaces/inkscape"
   width="209.12668mm"
   height="209.12668mm"
   viewBox="0 0 741.00004 741.00003"
   id="svg2"
   version="1.1"
   inkscape:version="0.91 r13725"
   sodipodi:docname="circle-cyan.svg">
  <defs
     id="defs4" />
  <sodipodi:namedview
     id="base"
     pagecolor="#ffffff"
     bordercolor="#666666"
     borderopacity="1.0"
     inkscape:pageopacity="0.0"
     inkscape:pageshadow="2"
     inkscape:zoom="0.35"
     inkscape:cx="-45.92856"
     inkscape:cy="517.64281"
     inkscape:document-units="px"
     inkscape:current-layer="layer1"
     showgrid="false"
     inkscape:window-width="1920"
     inkscape:window-height="1017"
     inkscape:window-x="-8"
     inkscape:window-y="-8"
     inkscape:window-maximized="1"
     inkscape:showpageshadow="false"
     borderlayer="false"
     fit-margin-top="0"
     fit-margin-left="0"
     fit-margin-right="0"
     fit-margin-bottom="0" />
  <metadata
     id="metadata7">
    <rdf:RDF>
      <cc:Work
         rdf:about="">
        <dc:format>image/svg+xml</dc:format>
        <dc:type
           rdf:resource="http://purl.org/dc/dcmitype/StillImage" />
        <dc:title></dc:title>
      </cc:Work>
    </rdf:RDF>
  </metadata>
  <g
     inkscape:label="Layer 1"
     inkscape:groupmode="layer"
     id="layer1"
     transform="translate(0.50001121,-309.00499)">
    <circle
       style="fill:#335eff;fill-opacity:1;fill-rule:evenodd;stroke:#000000;stroke-width:2.24837446px;stroke-linecap:butt;stroke-linejoin:miter;stroke-opacity:1"
       id="path3336"
       cx="370"
       cy="679.505"
       r="369.37582" />
    <path
       style="fill:#30afff;fill-opacity:1"
       d="M 306.92858,731.88717 C 256.7897,722.89323 207.48229,702.78212 163.39941,673.34566 135.51077,654.72295 85.631251,604.64037 66.946477,576.50009 19.118069,504.46792 -2.7598764,420.04923 5.220332,338.32232 13.629617,252.20115 45.870131,181.15025 104.42071,119.70683 162.09617,59.18176 225.67752,24.519075 307.03224,9.2489767 339.49133,3.156481 400.88073,3.0843181 434.32921,9.0993395 569.02167,33.320998 679.55735,130.69869 720.79413,261.46388 c 22.18534,70.35164 21.2592,154.71718 -2.4746,225.41895 -43.01583,128.14194 -155.34875,223.82272 -288.04346,245.3442 -32.52894,5.2758 -92.97003,5.10929 -123.34749,-0.33986 z"
       id="path4142"
       inkscape:connector-curvature="0"
       transform="translate(-0.50001121,309.00496)" />
    <path
       style="fill:#30afff;fill-opacity:1"
       d="m 325.50001,733.83049 c -24.2506,-2.56763 -60.89795,-11.53203 -83.39458,-20.39937 -26.48097,-10.43783 -68.83259,-33.54875 -88.03399,-48.0394 C 127.94998,645.67872 79.643731,595.17315 64.609669,571.85686 -6.3765583,461.76455 -14.716794,323.05903 42.74764,208.27192 84.82492,124.22115 161.49771,56.138495 248.35715,25.698146 295.31578,9.2412438 313.2769,6.4870215 372.64287,6.6397232 c 46.2812,0.1190458 58.05406,1.0785349 79.84217,6.5071488 125.05986,31.159283 221.71554,118.395998 264.00954,238.282118 14.168,40.16044 18.7014,69.29273 18.57369,119.35681 -0.124,48.56786 -5.91392,84.38243 -19.96974,123.52477 -41.86509,116.58489 -145.1866,207.09046 -266.8776,233.7742 -28.09849,6.16129 -90.98678,9.10569 -122.72092,5.74572 z"
       id="path4144"
       inkscape:connector-curvature="0"
       transform="translate(-0.50001121,309.00496)" />
    <path
       style="fill:#30afff;fill-opacity:1"
       d="M 318.35715,733.48872 C 261.90181,725.845 197.46035,698.8686 151.12366,663.48169 124.42235,643.09012 73.884194,588.05135 58.921343,563.06837 17.740679,494.3104 -0.88633669,416.50595 5.7331746,340.90306 13.619846,250.82769 48.429669,176.30279 112.58048,112.15198 144.38685,80.345606 169.80265,62.07524 209.78573,42.275138 269.34009,12.7831 317.67733,3.0060847 389.73095,5.8782095 c 41.25266,1.6443697 62.56966,5.4368685 97.19763,17.2923955 124.01906,42.460227 215.0694,145.372305 243.08915,274.758055 6.91354,31.92451 7.03974,107.85891 0.23628,142.21394 -14.54566,73.45069 -50.90526,139.73006 -105.76731,192.80157 -51.16172,49.49195 -111.4064,81.68586 -180.41526,96.41135 -24.90866,5.31517 -98.99437,7.75094 -125.71429,4.1332 z"
       id="path4146"
       inkscape:connector-curvature="0"
       transform="translate(-0.50001121,309.00496)" />
    <path
       style="fill:#30afff;fill-opacity:1"
       d="M 315.50001,733.54072 C 272.56684,726.83355 221.19698,707.83077 179.44215,683.21009 152.54918,667.35269 96.753549,615.59917 73.968003,585.37703 57.308611,563.28046 34.957386,520.8974 24.436233,491.45343 -6.7419049,404.19986 -1.2834877,299.07915 38.825831,214.33191 63.447963,162.30765 115.67224,101.14302 163.37787,68.457635 208.66842,37.426926 267.11472,14.59619 318.98347,7.6737952 358.45007,2.4065896 426.42001,5.7636784 459.78573,14.62813 573.1127,44.736323 663.0869,122.75014 709.08273,230.7858 c 22.78094,53.50825 31.35517,111.71446 25.60442,173.81637 -5.82328,62.88538 -25.44151,118.095 -60.6692,170.7354 -19.11442,28.56249 -69.11825,78.75718 -97.11205,97.48272 -41.4434,27.72226 -86.19277,46.95994 -131.8698,56.69066 -25.09215,5.34542 -105.16857,7.83657 -129.53609,4.02977 z"
       id="path4148"
       inkscape:connector-curvature="0"
       transform="translate(-0.50001121,309.00496)" />
  </g>
</svg>
